<svg xmlns="http://www.w3.org/2000/svg" width="512" height="512" viewBox="0 0 512 512">
<g>
<path d="M 191.50 471.41 C189.85,474.02 187.15,476.98 185.50,477.99 C182.51,479.82 182.48,479.81 173.00,476.10 C111.59,452.02 63.95,406.05 39.20,347.00 C14.31,287.62 14.85,220.65 40.69,161.57 C52.60,134.34 67.97,112.02 90.00,90.00 C135.04,44.95 192.76,21.00 256.26,21.00 C283.61,21.00 305.94,24.57 331.19,32.98 C414.82,60.83 475.60,133.34 489.18,221.44 C493.63,250.33 491.65,286.85 484.08,315.58 C465.39,386.48 413.82,445.64 346.36,473.59 C345.72,473.86 345.10,474.11 344.51,474.35 C334.52,478.50 331.65,479.69 329.38,478.98 C328.33,478.65 327.42,477.91 325.98,476.87 C318.30,471.30 318.05,469.97 318.00,433.50 C317.96,394.22 316.93,388.09 307.36,369.87 C300.36,356.54 286.28,342.66 276.91,339.85 C271.57,338.25 272.00,337.00 277.90,337.00 C284.63,337.00 304.67,333.50 315.22,330.48 C327.06,327.09 340.00,321.35 349.01,315.49 C357.52,309.95 370.28,297.51 374.00,291.12 L 376.50 286.83 L 395.50 287.44 C415.15,288.07 441.56,290.16 457.85,292.38 L 458.11 292.42 C463.90,293.21 466.36,293.54 467.45,292.47 C468.28,291.66 468.31,290.04 468.39,287.18 C468.50,283.59 468.47,283.56 463.50,282.81 C446.18,280.20 406.59,277.00 391.59,277.00 C387.05,277.00 383.07,276.74 382.75,276.42 C382.44,276.10 382.84,273.88 383.66,271.49 L 385.14 267.14 L 391.82 266.43 C398.11,265.75 465.77,266.38 469.00,267.15 C470.16,267.42 470.57,266.33 470.80,262.40 L 471.09 257.31 L 461.30 256.66 C455.91,256.30 437.10,256.01 419.50,256.01 L 387.50 256.00 L 387.83 242.02 C388.09,230.56 387.79,226.60 386.15,220.11 C384.19,212.38 378.11,198.83 374.09,193.27 L 372.09 190.50 L 374.53 180.56 C380.18,157.47 380.08,140.53 374.19,129.00 L 371.39 123.50 L 363.94 123.72 C349.45,124.16 331.41,130.74 319.12,140.07 L 313.75 144.16 L 303.12 140.65 C290.22,136.40 284.09,135.22 268.50,134.02 C247.71,132.41 226.35,134.90 207.37,141.16 L 198.24 144.17 L 191.95 139.54 C179.76,130.57 164.36,124.81 148.99,123.47 C140.22,122.70 139.54,123.14 135.89,132.00 C133.91,136.79 133.62,139.24 133.63,151.00 C133.63,161.96 134.16,166.99 136.44,177.77 L 139.24 191.03 L 136.73 194.83 C132.24,201.62 128.07,210.72 125.35,219.70 C123.01,227.42 122.68,230.28 122.62,243.00 L 122.56 257.50 L 88.53 257.52 C69.81,257.53 51.48,257.90 47.78,258.35 L 41.06 259.15 L 41.67 263.83 C42.01,266.40 42.38,268.62 42.49,268.77 C42.60,268.91 52.68,268.52 64.88,267.89 C78.19,267.21 94.81,267.05 106.47,267.49 L 125.88 268.21 L 126.94 271.26 C126.97,271.35 127.00,271.44 127.03,271.53 C127.65,273.29 128.06,274.45 127.68,275.24 C126.95,276.78 123.22,276.90 112.25,277.37 C93.90,278.16 67.66,280.48 53.76,282.55 C48.40,283.35 43.78,284.00 43.49,284.00 C43.20,284.00 43.20,285.12 43.48,286.50 C44.53,291.57 44.79,293.36 45.72,293.83 C46.21,294.08 46.90,293.95 48.01,293.75 C48.25,293.70 48.51,293.65 48.80,293.60 C64.16,290.94 111.74,287.00 128.52,287.00 C133.52,287.00 133.58,287.04 137.95,293.05 C154.57,315.86 183.34,330.52 221.50,335.60 C228.10,336.48 235.07,337.42 237.00,337.70 L 240.50 338.21 L 235.55 340.17 C232.83,341.24 228.45,343.70 225.82,345.63 C221.08,349.11 210.00,360.64 210.00,362.10 C210.00,363.86 198.28,367.03 188.27,367.98 C155.59,371.08 145.14,368.13 130.80,351.79 C121.47,341.15 115.79,335.89 109.63,332.16 C103.21,328.28 97.41,327.17 94.57,329.29 C92.74,330.66 92.95,331.03 99.07,336.77 C107.04,344.25 110.53,349.99 116.96,366.28 C124.43,385.18 128.57,390.65 139.00,395.39 C146.90,398.98 155.00,399.98 176.30,399.99 L 195.10 400.00 L 194.80 433.33 L 194.50 466.66 Z" fill="rgb(0,0,0)"/>
<path d="M 0.00 256.00 L 0.00 0.00 L 256.00 0.00 L 512.00 0.00 L 512.00 256.00 L 512.00 512.00 L 256.00 512.00 L 0.00 512.00 L 0.00 256.00 ZM 191.50 471.41 L 194.50 466.66 L 194.80 433.33 L 195.10 400.00 L 176.30 399.99 C155.00,399.98 146.90,398.98 139.00,395.39 C128.57,390.65 124.43,385.18 116.96,366.28 C110.53,349.99 107.04,344.25 99.07,336.77 C92.95,331.03 92.74,330.66 94.57,329.29 C97.41,327.17 103.21,328.28 109.63,332.16 C115.79,335.89 121.47,341.15 130.80,351.79 C145.14,368.13 155.59,371.08 188.27,367.98 C198.28,367.03 210.00,363.86 210.00,362.10 C210.00,360.64 221.08,349.11 225.82,345.63 C228.45,343.70 232.83,341.24 235.55,340.17 L 240.50 338.21 L 237.00 337.70 C235.07,337.42 228.10,336.48 221.50,335.60 C183.34,330.52 154.57,315.86 137.95,293.05 C133.58,287.04 133.52,287.00 128.52,287.00 C111.74,287.00 64.16,290.94 48.80,293.60 C44.78,294.30 45.22,294.88 43.48,286.50 C43.20,285.12 43.20,284.00 43.49,284.00 C43.78,284.00 48.40,283.35 53.76,282.55 C67.66,280.48 93.90,278.16 112.25,277.37 C129.11,276.65 128.86,276.76 126.94,271.26 L 125.88 268.21 L 106.47 267.49 C94.81,267.05 78.19,267.21 64.88,267.89 C52.68,268.52 42.60,268.91 42.49,268.77 C42.38,268.62 42.01,266.40 41.67,263.83 L 41.06 259.15 L 47.78 258.35 C51.48,257.90 69.81,257.53 88.53,257.52 L 122.56 257.50 L 122.62 243.00 C122.68,230.28 123.01,227.42 125.35,219.70 C128.07,210.72 132.24,201.62 136.73,194.83 L 139.24 191.03 L 136.44 177.77 C134.16,166.99 133.63,161.96 133.63,151.00 C133.62,139.24 133.91,136.79 135.89,132.00 C139.54,123.14 140.22,122.70 148.99,123.47 C164.36,124.81 179.76,130.57 191.95,139.54 L 198.24 144.17 L 207.37 141.16 C226.35,134.90 247.71,132.41 268.50,134.02 C284.09,135.22 290.22,136.40 303.12,140.65 L 313.75 144.16 L 319.12 140.07 C331.41,130.74 349.45,124.16 363.94,123.72 L 371.39 123.50 L 374.19 129.00 C380.08,140.53 380.18,157.47 374.53,180.56 L 372.09 190.50 L 374.09 193.27 C378.11,198.83 384.19,212.38 386.15,220.11 C387.79,226.60 388.09,230.56 387.83,242.02 L 387.50 256.00 L 419.50 256.01 C437.10,256.01 455.91,256.30 461.30,256.66 L 471.09 257.31 L 470.80 262.40 C470.57,266.33 470.16,267.42 469.00,267.15 C465.77,266.38 398.11,265.75 391.82,266.43 L 385.14 267.14 L 383.66 271.49 C382.84,273.88 382.44,276.10 382.75,276.42 C383.07,276.74 387.05,277.00 391.59,277.00 C406.59,277.00 446.18,280.20 463.50,282.81 C468.47,283.56 468.50,283.59 468.39,287.18 C468.20,293.85 468.29,293.81 457.85,292.38 C441.56,290.16 415.15,288.07 395.50,287.44 L 376.50 286.83 L 374.00 291.12 C370.28,297.51 357.52,309.95 349.01,315.49 C340.00,321.35 327.06,327.09 315.22,330.48 C304.67,333.50 284.63,337.00 277.90,337.00 C272.00,337.00 271.57,338.25 276.91,339.85 C286.28,342.66 300.36,356.54 307.36,369.87 C316.93,388.09 317.96,394.22 318.00,433.50 C318.05,469.97 318.30,471.30 325.98,476.87 C330.70,480.29 329.85,480.43 346.36,473.59 C413.82,445.64 465.39,386.48 484.08,315.58 C491.65,286.85 493.63,250.33 489.18,221.44 C475.60,133.34 414.82,60.83 331.19,32.98 C305.94,24.57 283.61,21.00 256.26,21.00 C192.76,21.00 135.04,44.95 90.00,90.00 C67.97,112.02 52.60,134.34 40.69,161.57 C14.85,220.65 14.31,287.62 39.20,347.00 C63.95,406.05 111.59,452.02 173.00,476.10 C182.48,479.81 182.51,479.82 185.50,477.99 C187.15,476.98 189.85,474.02 191.50,471.41 Z" fill="rgb(254,254,254)"/>
</g>
</svg>